<svg xmlns="http://www.w3.org/2000/svg" viewBox="0 0 256 256" role="img" aria-labelledby="title desc">
  <title id="title">SmartGuard App Icon Shield Electric Pop Modern Clear Tight Battery Flat Draft</title>
  <desc id="desc">Shield draft with a simplified flatter battery group that keeps the battery and bolt instantly readable.</desc>
  <defs>
    <linearGradient id="shieldInner" x1="128" y1="20" x2="128" y2="239" gradientUnits="userSpaceOnUse">
      <stop offset="0" stop-color="#4A9BC6"/>
      <stop offset="0.58" stop-color="#398CB8"/>
      <stop offset="1" stop-color="#297098"/>
    </linearGradient>
  </defs>

  <path
    fill="#54D3F2"
    d="M128 8
       C159 19 191 35 223 50
       V149
       C223 173 213 201 128 249
       C43 201 33 173 33 149
       V50
       C65 35 97 19 128 8
       Z"/>

  <path
    fill="url(#shieldInner)"
    stroke="#97E8F4"
    stroke-opacity="0.075"
    stroke-width="0.85"
    d="M128 20
       C156 30 185 45 212 60
       V147
       C212 168 203 191 128 237
       C53 191 44 168 44 147
       V60
       C71 45 100 30 128 20
       Z"/>

  <g transform="translate(128 128) scale(0.92) translate(-128 -128)">
    <path
      fill="#F1F7FB"
      d="M116 52
         H140
         Q144 52 144 56
         V64
         H145
         Q158 64 158 77
         V189
         Q158 202 145 202
         H111
         Q98 202 98 189
         V77
         Q98 64 111 64
         H112
         V56
         Q112 52 116 52
         Z"/>

    <rect x="108" y="75" width="40" height="116" rx="8" fill="#4D94BB"/>

    <path
      fill="#E6FF72"
      d="M129 105
         L117 138
         H128
         L124 160
         L138 133
         H129
         L129 105
         Z"/>
  </g>
</svg>
