<svg xmlns="http://www.w3.org/2000/svg" viewBox="0 0 256 256" role="img" aria-labelledby="title desc">
  <title id="title">SmartGuard App Icon</title>
  <desc id="desc">Shield outline containing a battery and lightning mark.</desc>
  <defs>
    <linearGradient id="shieldOuter" x1="128" y1="8" x2="128" y2="248" gradientUnits="userSpaceOnUse">
      <stop offset="0" stop-color="#71D9EF"/>
      <stop offset="1" stop-color="#58BFDA"/>
    </linearGradient>
    <linearGradient id="shieldInner" x1="128" y1="20" x2="128" y2="239" gradientUnits="userSpaceOnUse">
      <stop offset="0" stop-color="#12375D"/>
      <stop offset="1" stop-color="#0B2B4D"/>
    </linearGradient>
    <linearGradient id="batteryShell" x1="128" y1="49" x2="128" y2="214" gradientUnits="userSpaceOnUse">
      <stop offset="0" stop-color="#F4FCFF"/>
      <stop offset="1" stop-color="#D3EDF7"/>
    </linearGradient>
    <linearGradient id="batteryFill" x1="128" y1="77" x2="128" y2="190" gradientUnits="userSpaceOnUse">
      <stop offset="0" stop-color="#4396BE"/>
      <stop offset="1" stop-color="#2B80AB"/>
    </linearGradient>
    <linearGradient id="boltFill" x1="130" y1="101" x2="130" y2="187" gradientUnits="userSpaceOnUse">
      <stop offset="0" stop-color="#F1FF8D"/>
      <stop offset="1" stop-color="#D3FF57"/>
    </linearGradient>
  </defs>

  <path
    fill="url(#shieldOuter)"
    d="M128 8
       C145 14 169 27 194 38
       C211 45 221 55 223 71
       V149
       C223 173 213 201 128 249
       C43 201 33 173 33 149
       V71
       C35 55 45 45 62 38
       C87 27 111 14 128 8
       Z"/>

  <path
    fill="url(#shieldInner)"
    stroke="#0A2F54"
    stroke-width="1.6"
    d="M128 20
       C143 24 164 36 186 47
       C201 54 210 64 212 80
       V147
       C212 168 203 191 128 237
       C53 191 44 168 44 147
       V80
       C46 64 55 54 70 47
       C92 36 113 24 128 20
       Z"/>

  <path
    fill="url(#batteryShell)"
    d="M114 51
       H142
       Q146 51 146 55
       V63
       H145
       Q162 63 162 80
       V193
       Q162 210 145 210
       H111
       Q94 210 94 193
       V80
       Q94 63 111 63
       H110
       V55
       Q110 51 114 51
       Z"/>

  <rect x="103" y="84" width="50" height="105" rx="10.5" fill="url(#batteryFill)"/>

  <path
    fill="url(#boltFill)"
    d="M131 100
       L117 142
       H127
       L120 176
       L137 139
       H128
       L131 100
       Z"/>
</svg>
