<svg xmlns="http://www.w3.org/2000/svg" viewBox="0 0 256 256" role="img" aria-labelledby="title desc">
  <title id="title">SmartGuard App Icon</title>
  <desc id="desc">Shield outline containing a battery and lightning mark.</desc>
  <defs>
    <linearGradient id="shieldOuter" x1="128" y1="8" x2="128" y2="248" gradientUnits="userSpaceOnUse">
      <stop offset="0" stop-color="#71D9EF"/>
      <stop offset="1" stop-color="#58BFDA"/>
    </linearGradient>
    <linearGradient id="shieldInner" x1="128" y1="20" x2="128" y2="239" gradientUnits="userSpaceOnUse">
      <stop offset="0" stop-color="#12375D"/>
      <stop offset="1" stop-color="#0B2B4D"/>
    </linearGradient>
    <linearGradient id="batteryShell" x1="128" y1="49" x2="128" y2="214" gradientUnits="userSpaceOnUse">
      <stop offset="0" stop-color="#F4FCFF"/>
      <stop offset="1" stop-color="#D3EDF7"/>
    </linearGradient>
    <linearGradient id="batteryFill" x1="128" y1="77" x2="128" y2="190" gradientUnits="userSpaceOnUse">
      <stop offset="0" stop-color="#4396BE"/>
      <stop offset="1" stop-color="#2B80AB"/>
    </linearGradient>
    <linearGradient id="boltFill" x1="130" y1="101" x2="130" y2="187" gradientUnits="userSpaceOnUse">
      <stop offset="0" stop-color="#F1FF8D"/>
      <stop offset="1" stop-color="#D3FF57"/>
    </linearGradient>
  </defs>

  <path
    fill="url(#shieldOuter)"
    d="M128 8
       C149 17 176 31 201 40
       C216 46 223 55 223 72
       V149
       C223 173 213 201 128 249
       C43 201 33 173 33 149
       V72
       C33 55 40 46 55 40
       C80 31 107 17 128 8
       Z"/>

  <path
    fill="url(#shieldInner)"
    stroke="#0A2F54"
    stroke-width="1.6"
    d="M128 20
       C145 28 169 40 190 49
       C203 55 212 65 212 81
       V147
       C212 168 203 191 128 237
       C53 191 44 168 44 147
       V81
       C44 65 53 55 66 49
       C87 40 111 28 128 20
       Z"/>

  <path
    fill="url(#batteryShell)"
    d="M112 49
       H144
       Q148 49 148 54
       V64
       H147
       Q166 64 166 83
       V192
       Q166 211 147 211
       H109
       Q90 211 90 192
       V83
       Q90 64 109 64
       H108
       V54
       Q108 49 112 49
       Z"/>

  <rect x="102" y="77" width="52" height="108" rx="11" fill="url(#batteryFill)"/>

  <path
    fill="url(#boltFill)"
    d="M132 101
       L118 143
       H128
       L121 177
       L138 140
       H129
       L132 101
       Z"/>
</svg>
